<svg width="119" height="95" viewBox="0 0 119 95" fill="none" xmlns="http://www.w3.org/2000/svg">
<path d="M58.6024 15.7813C54.6869 23.967 52.3689 34.3824 51.6641 46.8263C66.9503 28.3978 97.1155 16.141 112.198 10.8901C111.478 10.0701 110.695 9.29326 109.818 8.58834C104.696 4.50273 95.5807 1.30904 71.4923 0.316406C66.1359 3.84097 61.8601 8.97677 58.618 15.7813H58.6024Z" fill="#4D73FB"/>
<path d="M41.8136 47.4594C42.9257 24.1685 49.1905 9.29334 57.7577 0C56.5517 0 55.3301 0 54.0771 0C18.8217 0 8.86054 7.75404 5.86908 14.8751L5.82209 15.0046C4.96067 17.0474 4.24022 19.1477 3.62939 21.2913C17.1458 27.5779 32.1345 36.3678 41.8293 47.4594H41.8136Z" fill="#4D73FB"/>
<path d="M86.7012 31.5771C70.6005 40.1511 51.5867 53.8897 52.1036 70.7357C52.9023 80.1873 54.2493 88.7038 55.4239 94.9329C70.9138 94.3431 86.3096 90.7754 97.1635 81.5827C127.015 56.2778 118.276 26.1823 116.224 18.8599C108.988 21.3774 97.743 25.6932 86.7012 31.5915V31.5771Z" fill="#4D73FB"/>
<path d="M42.173 69.3262C40.4502 53.9189 22.799 41.3455 7.7007 33.3181C5.69594 32.2536 3.67553 31.2322 1.68644 30.2683C1.18525 33.5627 0.872011 36.929 0.699728 40.3673C-0.286986 58.5943 5.47667 70.8943 11.4753 78.634C17.2233 86.0571 25.9627 91.2649 35.8299 93.4371C38.9779 94.1277 42.2043 94.6024 45.4777 94.847C44.8043 91.1929 44.1151 86.8915 43.4886 82.1442C43.0971 79.1663 42.2043 69.7866 42.173 69.3406V69.3262Z" fill="#4D73FB"/>
</svg>
