<svg width="119" height="96" viewBox="0 0 119 96" fill="none" xmlns="http://www.w3.org/2000/svg">
<rect width="119" height="96" fill="#1E1E1E"/>
<g id="Desktop - 1" clip-path="url(#clip0_0_1)">
<rect width="1440" height="7354" transform="translate(-286 -2166)" fill="white"/>
<g id="Frame 39521">
<g id="About">
<g id="Members">
<g id="Member Info">
<g id="Image Placeholder">
<g id="Group 39475">
<rect id="Container" x="-104.212" y="-115.354" width="326.874" height="326.032" rx="16.8492" fill="#F9F9FF"/>
<g id="Group">
<path id="Vector" d="M58.3905 16.4273C54.4749 24.613 52.1569 35.0284 51.4521 47.4723C66.7384 29.0438 96.9036 16.787 111.986 11.5361C111.266 10.7161 110.483 9.93925 109.606 9.23434C104.484 5.14872 95.3687 1.95503 71.2804 0.962402C65.9239 4.48697 61.6482 9.62276 58.4061 16.4273H58.3905Z" fill="#4D73FB"/>
<path id="Vector_2" d="M41.6012 48.1054C42.7133 24.8144 48.9781 9.93934 57.5453 0.645996C56.3393 0.645996 55.1177 0.645996 53.8647 0.645996C18.6093 0.645996 8.64814 8.40004 5.65668 15.5211L5.60969 15.6506C4.74827 17.6934 4.02781 19.7937 3.41699 21.9372C16.9334 28.2239 31.9221 37.0138 41.6169 48.1054H41.6012Z" fill="#4D73FB"/>
<path id="Vector_3" d="M86.4888 32.2231C70.3881 40.7971 51.3743 54.5357 51.8912 71.3817C52.6899 80.8333 54.0369 89.3498 55.2115 95.5789C70.7014 94.9891 86.0972 91.4214 96.9511 82.2287C126.803 56.9238 118.064 26.8283 116.012 19.5059C108.776 22.0234 97.5306 26.3392 86.4888 32.2375V32.2231Z" fill="#4D73FB"/>
<path id="Vector_4" d="M41.9611 69.972C40.2383 54.5646 22.5871 41.9913 7.48878 33.9639C5.48403 32.8993 3.46362 31.8779 1.47453 30.9141C0.973339 34.2085 0.660097 37.5748 0.487814 41.013C-0.4989 59.2401 5.26476 71.5401 11.2634 79.2797C17.0113 86.7029 25.7508 91.9106 35.6179 94.0829C38.766 94.7734 41.9924 95.2482 45.2658 95.4927C44.5923 91.8387 43.9032 87.5373 43.2767 82.7899C42.8852 79.812 41.9924 70.4324 41.9611 69.9864V69.972Z" fill="#4D73FB"/>
</g>
</g>
</g>
</g>
</g>
</g>
</g>
</g>
<defs>
<clipPath id="clip0_0_1">
<rect width="1440" height="7354" fill="white" transform="translate(-286 -2166)"/>
</clipPath>
</defs>
</svg>
