<svg width="21" height="20" viewBox="0 0 21 20" fill="none" xmlns="http://www.w3.org/2000/svg">
<g id="Line Rounded/Email">
<g id="Email">
<path id="Vector" d="M18.6999 5.94958V14.2829C18.6999 14.8355 18.4804 15.3654 18.0897 15.7561C17.699 16.1468 17.1691 16.3663 16.6165 16.3663H4.11654C3.564 16.3663 3.0341 16.1468 2.6434 15.7561C2.2527 15.3654 2.0332 14.8355 2.0332 14.2829V5.94958" stroke="#8D8BA7" stroke-width="1.4" stroke-linecap="round" stroke-linejoin="round"/>
<path id="Vector_2" d="M18.6999 5.94954C18.6999 5.39701 18.4804 4.86711 18.0897 4.47641C17.699 4.0857 17.1691 3.86621 16.6165 3.86621H4.11654C3.564 3.86621 3.0341 4.0857 2.6434 4.47641C2.2527 4.86711 2.0332 5.39701 2.0332 5.94954L9.26237 10.4634C9.59348 10.6704 9.97608 10.7801 10.3665 10.7801C10.757 10.7801 11.1396 10.6704 11.4707 10.4634L18.6999 5.94954Z" stroke="#8D8BA7" stroke-width="1.4" stroke-linecap="round" stroke-linejoin="round"/>
</g>
</g>
</svg>
