<svg width="20" height="21" viewBox="0 0 20 21" fill="none" xmlns="http://www.w3.org/2000/svg">
<g id="Line Rounded/Email">
<g id="Email">
<path id="Vector" d="M18.3332 6.30017V14.6335C18.3332 15.186 18.1137 15.7159 17.723 16.1066C17.3323 16.4973 16.8024 16.7168 16.2498 16.7168H3.74984C3.1973 16.7168 2.6674 16.4973 2.2767 16.1066C1.886 15.7159 1.6665 15.186 1.6665 14.6335V6.30017" stroke="white" stroke-width="1.4" stroke-linecap="round" stroke-linejoin="round"/>
<path id="Vector_2" d="M18.3332 6.30013C18.3332 5.7476 18.1137 5.21769 17.723 4.82699C17.3323 4.43629 16.8024 4.2168 16.2498 4.2168H3.74984C3.1973 4.2168 2.6674 4.43629 2.2767 4.82699C1.886 5.21769 1.6665 5.7476 1.6665 6.30013L8.89567 10.814C9.22678 11.021 9.60938 11.1307 9.99984 11.1307C10.3903 11.1307 10.7729 11.021 11.104 10.814L18.3332 6.30013Z" stroke="white" stroke-width="1.4" stroke-linecap="round" stroke-linejoin="round"/>
</g>
</g>
</svg>
