<svg width="21" height="20" viewBox="0 0 21 20" fill="none" xmlns="http://www.w3.org/2000/svg">
<g id="Line Rounded/Mark">
<g id="Mark">
<path id="Vector" d="M17.5389 8.95625C17.5389 14.3351 12.0297 17.6488 10.8848 18.28C10.8214 18.315 10.7501 18.3334 10.6777 18.3334C10.6053 18.3334 10.534 18.315 10.4706 18.28C9.32486 17.6488 3.81738 14.3351 3.81738 8.95625C3.81738 4.66827 6.39017 1.66669 10.6781 1.66669C14.9661 1.66669 17.5389 4.66827 17.5389 8.95625Z" stroke="#8D8BA7" stroke-width="1.4" stroke-linecap="round" stroke-linejoin="round"/>
<path id="Vector_2" d="M7.24756 8.52743C7.24756 9.43722 7.60897 10.3098 8.25229 10.9531C8.89561 11.5964 9.76815 11.9578 10.6779 11.9578C11.5877 11.9578 12.4603 11.5964 13.1036 10.9531C13.7469 10.3098 14.1083 9.43722 14.1083 8.52743C14.1083 7.61763 13.7469 6.7451 13.1036 6.10178C12.4603 5.45846 11.5877 5.09705 10.6779 5.09705C9.76815 5.09705 8.89561 5.45846 8.25229 6.10178C7.60897 6.7451 7.24756 7.61763 7.24756 8.52743V8.52743Z" stroke="#8D8BA7" stroke-width="1.4" stroke-linecap="round" stroke-linejoin="round"/>
</g>
</g>
</svg>
