<svg width="21" height="20" viewBox="0 0 21 20" fill="none" xmlns="http://www.w3.org/2000/svg">
<g id="Line Rounded/Phone">
<g id="Phone">
<path id="Vector" d="M12.7514 17.3852L12.7605 17.3915C13.5476 17.8927 14.482 18.1103 15.4095 18.0084C16.337 17.9066 17.2019 17.4913 17.8615 16.8314L18.4344 16.2584C18.5614 16.1315 18.6621 15.9809 18.7308 15.815C18.7995 15.6492 18.8349 15.4715 18.8349 15.292C18.8349 15.1125 18.7995 14.9347 18.7308 14.7689C18.6621 14.6031 18.5614 14.4524 18.4344 14.3255L16.0178 11.9108C15.8909 11.7838 15.7403 11.6831 15.5745 11.6144C15.4086 11.5457 15.2309 11.5103 15.0514 11.5103C14.8719 11.5103 14.6941 11.5457 14.5283 11.6144C14.3625 11.6831 14.2118 11.7838 14.0849 11.9108C13.8287 12.1669 13.4813 12.3108 13.119 12.3108C12.7567 12.3108 12.4092 12.1669 12.153 11.9108L8.28901 8.04592C8.03287 7.7897 7.88897 7.44223 7.88897 7.07993C7.88897 6.71763 8.03287 6.37017 8.28901 6.11394C8.41598 5.98706 8.5167 5.8364 8.58542 5.67057C8.65414 5.50474 8.68951 5.327 8.68951 5.1475C8.68951 4.968 8.65414 4.79026 8.58542 4.62443C8.5167 4.4586 8.41598 4.30794 8.28901 4.18105L5.87336 1.76631C5.61714 1.51017 5.26967 1.36627 4.90737 1.36627C4.54507 1.36627 4.19761 1.51017 3.94138 1.76631L3.36753 2.33926C2.70768 2.9989 2.29262 3.86391 2.19093 4.79137C2.08924 5.71884 2.30701 6.65324 2.80825 7.44018L2.81371 7.44929C5.4609 11.3659 8.83434 14.7387 12.7514 17.3852V17.3852Z" stroke="#8D8BA7" stroke-width="1.4" stroke-linecap="round" stroke-linejoin="round"/>
</g>
</g>
</svg>
