<svg width="20" height="21" viewBox="0 0 20 21" fill="none" xmlns="http://www.w3.org/2000/svg">
<g id="Line Rounded/Phone">
<g id="Phone">
<path id="Vector" d="M12.2514 17.7357L12.2605 17.7421C13.0476 18.2432 13.982 18.4608 14.9095 18.359C15.837 18.2571 16.7019 17.8419 17.3615 17.1819L17.9344 16.6089C18.0614 16.4821 18.1621 16.3314 18.2308 16.1656C18.2995 15.9997 18.3349 15.822 18.3349 15.6425C18.3349 15.463 18.2995 15.2853 18.2308 15.1194C18.1621 14.9536 18.0614 14.8029 17.9344 14.6761L15.5178 12.2613C15.3909 12.1343 15.2403 12.0336 15.0745 11.9649C14.9086 11.8962 14.7309 11.8608 14.5514 11.8608C14.3719 11.8608 14.1941 11.8962 14.0283 11.9649C13.8625 12.0336 13.7118 12.1343 13.5849 12.2613C13.3287 12.5175 12.9813 12.6613 12.619 12.6613C12.2567 12.6613 11.9092 12.5175 11.653 12.2613L7.78901 8.39644C7.53287 8.14022 7.38897 7.79275 7.38897 7.43046C7.38897 7.06816 7.53287 6.72069 7.78901 6.46447C7.91598 6.33758 8.0167 6.18692 8.08542 6.02109C8.15414 5.85527 8.18951 5.67752 8.18951 5.49802C8.18951 5.31852 8.15414 5.14078 8.08542 4.97495C8.0167 4.80913 7.91598 4.65847 7.78901 4.53158L5.37336 2.11684C5.11714 1.86069 4.76967 1.7168 4.40737 1.7168C4.04507 1.7168 3.69761 1.86069 3.44138 2.11684L2.86753 2.68978C2.20768 3.34942 1.79262 4.21444 1.69093 5.1419C1.58924 6.06936 1.80701 7.00376 2.30825 7.79071L2.31371 7.79982C4.9609 11.7164 8.33434 15.0892 12.2514 17.7357V17.7357Z" stroke="white" stroke-width="1.4" stroke-linecap="round" stroke-linejoin="round"/>
</g>
</g>
</svg>
