<svg width="30" height="27" viewBox="0 0 30 27" fill="none" xmlns="http://www.w3.org/2000/svg">
<path d="M0.5 1.80098C0.5 0.805351 1.30996 0.000976562 2.3125 0.000976562H5.9375H9.5625H13.1875C14.19 0.000976562 15 0.805351 15 1.80098C15 2.7966 14.19 3.60098 13.1875 3.60098V13.2085C12.0434 14.8172 11.375 16.7804 11.375 18.901C11.375 20.3185 11.6752 21.6628 12.2133 22.8835C11.2334 24.2841 9.59648 25.201 7.75 25.201C4.74805 25.201 2.3125 22.7822 2.3125 19.801V3.60098C1.30996 3.60098 0.5 2.7966 0.5 1.80098ZM5.9375 3.60098V9.00098H9.5625V3.60098H5.9375ZM13.1875 18.901C13.1875 16.7527 14.0468 14.6925 15.5764 13.1734C17.106 11.6544 19.1806 10.801 21.3438 10.801C23.5069 10.801 25.5815 11.6544 27.1111 13.1734C28.6407 14.6925 29.5 16.7527 29.5 18.901C29.5 21.0492 28.6407 23.1095 27.1111 24.6285C25.5815 26.1476 23.5069 27.001 21.3438 27.001C19.1806 27.001 17.106 26.1476 15.5764 24.6285C14.0468 23.1095 13.1875 21.0492 13.1875 18.901ZM25.1557 16.4654C24.8045 16.1166 24.2268 16.1166 23.8756 16.4654L20.4375 19.8797L18.8119 18.2654C18.4607 17.9166 17.883 17.9166 17.5318 18.2654C17.1807 18.6141 17.1807 19.1879 17.5318 19.5366L19.7975 21.7866C20.1486 22.1354 20.7264 22.1354 21.0775 21.7866L25.1557 17.7366C25.5068 17.3878 25.5068 16.8141 25.1557 16.4654Z" fill="white"/>
</svg>
